<?xml version="1.0" encoding="UTF-8"?>
<svg xmlns="http://www.w3.org/2000/svg" viewBox="0 0 900 600" width="900" height="600" font-family="Arial, sans-serif">
  <style>
    .title { font-size: 16px; font-weight: bold; fill: #1a1a1a; }
    .subtitle { font-size: 11px; fill: #555; }
    .label { font-size: 11px; fill: #1a1a1a; }
    .label-small { font-size: 10px; fill: #555; }
    .axis { stroke: #888; stroke-width: 1; }
    .grid { stroke: #ddd; stroke-width: 0.5; stroke-dasharray: 3,3; }
    .bar-good { fill: #2e8b57; }
    .bar-warn { fill: #d97706; }
    .bar-info { fill: #2563eb; }
    .bar-neutral { fill: #6b7280; }
    .threshold { stroke: #dc2626; stroke-width: 1.5; stroke-dasharray: 6,3; }
    .threshold-label { font-size: 10px; fill: #dc2626; font-weight: bold; }
    .box { fill: #f8f9fb; stroke: #1f3a5f; stroke-width: 1.5; rx: 6; ry: 6; }
    .box-text { font-size: 11px; fill: #1a1a1a; text-anchor: middle; }
    .arrow { stroke: #555; stroke-width: 1.2; fill: none; marker-end: url(#arrow); }
    .arrow-text { font-size: 9px; fill: #444; }
    .role { fill: #fef3c7; stroke: #d97706; stroke-width: 1; rx: 4; ry: 4; }
  </style>
  <defs>
    <marker id="arrow" viewBox="0 0 10 10" refX="9" refY="5" markerWidth="8" markerHeight="8" orient="auto">
      <path d="M0,0 L10,5 L0,10 z" fill="#555"/>
    </marker>
  </defs>

  <text x="450" y="30" text-anchor="middle" class="title">Arquitetura da PoC DREX-ZKP-LGPD</text>
  <text x="450" y="48" text-anchor="middle" class="subtitle">Cliente off-chain | Hyperledger Besu QBFT | Regulador off-chain</text>

  <!-- Grupo Cliente -->
  <rect x="30" y="80" width="240" height="440" fill="#e8f4f8" stroke="#0e6e8c" stroke-width="2" rx="8"/>
  <text x="150" y="105" text-anchor="middle" class="label" font-weight="bold">Cliente off-chain</text>
  <text x="150" y="120" text-anchor="middle" class="subtitle">(titular do saldo)</text>

  <rect x="55" y="150" width="190" height="55" class="box"/>
  <text x="150" y="172" class="box-text" font-weight="bold">Wallet</text>
  <text x="150" y="190" class="box-text label-small">value, randomness</text>

  <rect x="55" y="230" width="190" height="55" class="box"/>
  <text x="150" y="252" class="box-text" font-weight="bold">ZoKrates Docker</text>
  <text x="150" y="270" class="box-text label-small">compute-witness + proof</text>

  <rect x="55" y="310" width="190" height="55" class="box"/>
  <text x="150" y="332" class="box-text" font-weight="bold">ECIES Encryptor</text>
  <text x="150" y="350" class="box-text label-small">payload p/ regulator</text>

  <!-- Grupo Besu -->
  <rect x="320" y="80" width="370" height="440" fill="#fff4e6" stroke="#cc8800" stroke-width="2" rx="8"/>
  <text x="505" y="105" text-anchor="middle" class="label" font-weight="bold">Hyperledger Besu QBFT</text>
  <text x="505" y="120" text-anchor="middle" class="subtitle">(4 validadores permissionados)</text>

  <rect x="345" y="150" width="320" height="60" class="box"/>
  <text x="505" y="172" class="box-text" font-weight="bold">DvPSettlement.sol</text>
  <text x="505" y="190" class="box-text label-small">orquestra DvP atomico</text>
  <text x="505" y="204" class="box-text label-small">rate limit + ReentrancyGuard</text>

  <rect x="345" y="240" width="155" height="60" class="box"/>
  <text x="422" y="262" class="box-text" font-weight="bold">Verifier.sol</text>
  <text x="422" y="280" class="box-text label-small">Groth16 / BN128</text>
  <text x="422" y="294" class="box-text label-small">precompileds 0x06-0x08</text>

  <rect x="510" y="240" width="155" height="60" class="box"/>
  <text x="587" y="262" class="box-text" font-weight="bold">PrivateToken.sol</text>
  <text x="587" y="280" class="box-text label-small">commitments por addr</text>
  <text x="587" y="294" class="box-text label-small">cryptoShred (RF06)</text>

  <rect x="345" y="330" width="320" height="60" class="box"/>
  <text x="505" y="352" class="box-text" font-weight="bold">RegulatorViewer.sol</text>
  <text x="505" y="370" class="box-text label-small">audit trail cifrado</text>
  <text x="505" y="384" class="box-text label-small">getEncryptedTx (REGULATOR_ROLE)</text>

  <!-- Validadores QBFT -->
  <text x="505" y="425" text-anchor="middle" class="label-small" font-weight="bold">Consenso QBFT</text>
  <circle cx="395" cy="455" r="20" fill="#fef3c7" stroke="#d97706"/>
  <text x="395" y="460" text-anchor="middle" class="label-small">node-1</text>
  <circle cx="465" cy="455" r="20" fill="#fef3c7" stroke="#d97706"/>
  <text x="465" y="460" text-anchor="middle" class="label-small">node-2</text>
  <circle cx="535" cy="455" r="20" fill="#fef3c7" stroke="#d97706"/>
  <text x="535" y="460" text-anchor="middle" class="label-small">node-3</text>
  <circle cx="605" cy="455" r="20" fill="#fef3c7" stroke="#d97706"/>
  <text x="605" y="460" text-anchor="middle" class="label-small">node-4</text>
  <text x="505" y="500" text-anchor="middle" class="label-small">f = 1 (toleramos 1 bizantino)</text>

  <!-- Grupo Regulador -->
  <rect x="740" y="80" width="130" height="440" fill="#f0f0f5" stroke="#555" stroke-width="2" rx="8"/>
  <text x="805" y="105" text-anchor="middle" class="label" font-weight="bold">Regulador</text>
  <text x="805" y="120" text-anchor="middle" class="subtitle">(REGULATOR_ROLE)</text>

  <rect x="755" y="190" width="100" height="50" class="box"/>
  <text x="805" y="210" class="box-text" font-weight="bold">ECIES</text>
  <text x="805" y="226" class="box-text label-small">Decryptor</text>

  <rect x="755" y="290" width="100" height="50" class="box"/>
  <text x="805" y="310" class="box-text" font-weight="bold">Auditoria</text>
  <text x="805" y="326" class="box-text label-small">LC 105/2001</text>

  <!-- Setas de fluxo -->
  <path d="M 245 257 L 320 197" class="arrow"/>
  <text x="280" y="220" class="arrow-text">prova + inputs</text>

  <path d="M 245 337 L 320 360" class="arrow"/>
  <text x="277" y="354" class="arrow-text">ciphertext</text>

  <path d="M 665 360 L 740 215" class="arrow"/>
  <text x="700" y="280" class="arrow-text" transform="rotate(-50 700 280)">getEncryptedTx</text>
  
</svg>